<svg xmlns="http://www.w3.org/2000/svg" shape-rendering="crispEdges" viewBox="0 -.5 30 25">
  <path stroke="#000" d="M6 0h4M4 1h2m4 0h2M3 2h1m8 0h1m1 0h8M4 3h3m6 0h1m8 0h3M7 4h1m17 0h2M8 5h1m18 0h1M3 6h3m1 0h1m20 0h1M2 7h1m3 0h1m22 0h1M1 8h1m27 0h1M0 9h1m28 0h1M0 10h1m3 0h1m24 0h1M0 11h1m2 0h1m1 0h1m23 0h1M0 12h1m2 0h1m2 0h1m22 0h1M0 13h1m2 0h1m2 0h1m22 0h1M1 14h1m2 0h1m1 0h1m22 0h1M1 15h1m3 0h2m22 0h1M2 16h1m3 0h1m22 0h1M3 17h1m24 0h1M4 18h1m23 0h1M5 19h1m21 0h1M6 20h2m19 0h1M8 21h1m17 0h1M9 22h2m13 0h2m-15 1h3m7 0h3m-10 1h7"/>
  <path stroke="#66c439" d="M6 1h2M4 2h2m3 1h1m2 0h1m-3 1h1m1 0h1m0 1h1M9 6h1m3 0h1m-4 1h2m-1 1h1"/>
  <path stroke="#a5e069" d="M8 1h2M6 2h3m2 0h1m-1 1h1m-1 1h1M9 5h2m1 0h1m-3 1h1"/>
  <path stroke="#dffea6" d="M9 2h2M7 3h2m1 0h1M8 4h2"/>
  <path stroke="#c0bba8" d="M14 3h8m-9 1h1m8 0h3m0 1h2M8 6h1m18 0h1M5 7h1m1 0h1m20 0h1M5 8h3M1 9h1m1 0h1m1 0h5m18 0h1M2 10h1m6 0h4m13 0h3M1 11h2m9 0h6m5 0h6M2 12h1m16 0h6m3 0h1M2 13h1m12 0h9m4 0h1M3 14h1m9 0h9m6 0h1M2 15h1m1 0h1m7 0h8m8 0h1M3 16h1m1 0h1m6 0h11m4 0h2M4 17h1m1 0h1m5 0h11m3 0h2M5 18h2m6 0h9m3 0h3M6 19h2m6 0h5m1 0h1m3 0h3m-12 1h4m1 0h5m-8 1h6"/>
  <path stroke="#82755b" d="M14 4h8m-8 1h1m6 0h4m-1 1h3M8 7h2m16 0h2M8 8h1m18 0h1M4 9h1m-2 1h1m1 0h4m-3 1h6m-5 1h12M7 13h8m-8 1h6m-6 1h5m-5 1h5m-5 1h5m-5 1h6m-5 1h6m-6 1h7m10 0h2M9 21h8m6 0h3m-15 1h13m-10 1h7"/>
  <path stroke="#23781e" d="M11 5h1m-1 1h2m-1 1h2m-2 1h1"/>
  <path stroke="#3b2e3a" d="M15 5h6m-7 1h1m2 0h1m2 0h4m-9 1h5m4 0h2M9 8h2m2 0h2m4 0h3m3 0h2M10 9h3m3 0h4m3 0h2m-4 1h2"/>
  <path stroke="#6e566a" d="M15 6h2m-3 1h1m0 1h4m3 0h1M13 9h3m6 0h1m2 0h1m-13 1h6"/>
  <path stroke="#877986" d="M18 6h2m0 1h4m-1 1h2m-5 1h2m-3 1h2"/>
  <path stroke="#fef7dd" d="M3 7h2M2 8h3m23 0h1M2 9h1m23 0h2M1 10h1m21 0h3m-8 1h5M1 12h1m23 0h3M1 13h1m22 0h4M2 14h1m19 0h6M3 15h1m16 0h8M4 16h1m18 0h4M5 17h1m17 0h3m-4 1h3m-6 1h1m1 0h3m-5 1h1"/>
</svg>