<?xml version="1.0" standalone="no"?>
<!DOCTYPE svg PUBLIC "-//W3C//DTD SVG 20010904//EN"
 "http://www.w3.org/TR/2001/REC-SVG-20010904/DTD/svg10.dtd">
<svg version="1.0" xmlns="http://www.w3.org/2000/svg"
 width="305.000000pt" height="305.000000pt" viewBox="0 0 305.000000 305.000000"
 preserveAspectRatio="xMidYMid meet">
<metadata>
Created by potrace 1.11, written by Peter Selinger 2001-2013
</metadata>
<g transform="translate(0.000000,305.000000) scale(0.100000,-0.100000)"
fill="#000000" stroke="none">
<path d="M1553 2923 c-7 -2 -13 -10 -13 -16 0 -8 4 -7 12 1 15 15 31 16 22 0
-5 -7 -3 -8 6 -3 9 5 11 4 6 -4 -4 -6 -12 -8 -18 -5 -6 4 -14 0 -19 -7 -6 -10
-9 -10 -9 -2 0 7 -10 18 -22 24 -19 9 -21 9 -10 -2 6 -7 12 -18 12 -23 0 -6
-5 -4 -10 4 -9 13 -11 13 -21 0 -8 -12 -9 -11 -4 6 5 19 2 22 -20 20 -19 -1
-22 -3 -12 -11 16 -11 19 -45 4 -45 -5 0 -6 7 -3 16 5 12 2 15 -10 10 -8 -3
-18 -6 -21 -6 -3 0 1 -7 8 -17 13 -15 12 -15 -9 -4 -12 7 -20 17 -16 23 4 7 3
8 -4 4 -9 -5 -9 -13 -2 -27 6 -10 7 -19 2 -19 -5 0 -14 10 -20 23 -6 12 -11
16 -11 9 -1 -7 -6 -10 -11 -7 -6 4 -9 1 -8 -7 2 -7 -3 -12 -9 -10 -7 1 -13 -3
-13 -9 0 -5 -4 -8 -9 -4 -5 3 -12 1 -16 -5 -9 -15 -28 -12 -19 3 4 6 3 8 -1 4
-11 -10 -15 -37 -6 -37 4 0 12 5 19 12 8 8 12 8 12 1 0 -6 -14 -16 -31 -23
-22 -10 -27 -15 -17 -21 7 -5 8 -9 3 -9 -6 0 -16 5 -23 12 -9 9 -12 9 -12 0 0
-7 -8 -12 -17 -10 -11 2 -17 -2 -15 -10 2 -9 -2 -11 -10 -5 -7 4 -21 6 -32 4
-11 -1 -16 2 -11 8 3 6 11 8 17 5 7 -5 8 -2 3 5 -5 9 -11 9 -17 3 -6 -6 -18
-8 -27 -5 -9 3 -6 -2 7 -11 12 -10 22 -23 22 -29 0 -8 -2 -9 -8 -1 -10 16 -59
23 -59 9 0 -7 11 -11 24 -9 13 1 21 -2 17 -7 -3 -5 -10 -6 -16 -3 -6 4 -17 -1
-25 -11 -7 -11 -13 -13 -13 -6 0 7 -5 9 -12 5 -7 -4 -8 -3 -4 5 4 6 12 9 17 6
5 -3 6 1 2 10 -4 12 -8 13 -13 5 -4 -6 -21 -12 -39 -12 -19 -1 -27 -4 -20 -9
7 -4 19 -5 28 -2 10 3 12 2 5 -4 -6 -4 -14 -15 -17 -23 -4 -11 -6 -10 -6 5 -1
18 -3 18 -21 -5 -11 -14 -20 -20 -20 -15 0 6 6 17 13 24 10 11 9 13 -4 8 -9
-3 -23 0 -30 6 -8 8 -8 5 1 -7 14 -18 13 -19 -13 -14 -29 6 -45 -6 -26 -18 8
-5 9 -3 4 6 -6 9 -4 11 4 6 7 -5 10 -11 7 -14 -10 -10 -55 -11 -61 -1 -3 5 1
6 9 3 10 -4 16 -1 16 7 0 7 -3 9 -7 6 -3 -4 -16 1 -27 10 -20 17 -20 17 -7 1
12 -16 9 -22 -12 -19 -4 0 -6 -2 -6 -6 3 -19 -2 -33 -12 -33 -5 0 -8 4 -5 9 3
5 -2 11 -12 13 -11 3 -19 0 -19 -8 0 -7 4 -11 9 -8 15 9 8 -3 -9 -17 -9 -8
-14 -9 -10 -3 4 7 -2 14 -13 17 -22 6 -26 -2 -10 -21 5 -7 3 -6 -5 1 -9 8 -30
11 -51 9 -22 -3 -31 -7 -24 -12 7 -5 2 -7 -14 -7 -14 0 -26 4 -26 9 0 5 4 7 8
4 5 -3 9 1 9 9 0 21 -15 18 -22 -4 -5 -18 -26 -32 -50 -36 -5 0 -9 -6 -8 -13
2 -6 -4 -9 -12 -5 -13 5 -13 7 2 18 10 7 22 11 27 8 5 -4 6 0 1 7 -5 8 -4 11
3 6 6 -3 13 -3 16 2 2 4 -6 8 -19 8 -13 0 -21 -4 -18 -10 4 -5 -1 -7 -11 -3
-9 4 -15 3 -12 -2 3 -5 -1 -12 -10 -15 -8 -3 -13 -2 -10 3 3 5 -2 15 -12 22
-9 7 -14 9 -10 5 4 -5 0 -15 -10 -23 -9 -8 -11 -12 -4 -8 6 3 19 -1 28 -9 8
-9 11 -16 5 -16 -5 0 -13 5 -16 10 -5 8 -12 7 -23 -2 -9 -7 -13 -8 -10 -3 3 6
-6 19 -21 29 l-26 20 19 -22 18 -21 -30 8 c-30 9 -42 6 -42 -11 0 -5 9 -7 19
-3 11 3 22 1 26 -5 3 -6 11 -7 17 -4 7 4 8 2 4 -5 -6 -9 -11 -9 -22 0 -11 9
-20 8 -40 -5 -22 -15 -23 -20 -12 -33 12 -15 10 -15 -12 0 l-26 16 1 -34 c1
-19 5 -38 10 -42 4 -5 5 -3 1 4 -3 6 -1 15 5 19 8 4 9 3 5 -4 -4 -7 -1 -12 6
-12 10 0 10 -2 -1 -9 -11 -7 -10 -11 5 -20 11 -6 14 -11 7 -11 -6 0 -15 5 -18
10 -3 6 -11 10 -17 10 -7 0 -6 -6 2 -15 12 -14 7 -20 -14 -16 -5 1 -4 -5 4
-13 14 -18 25 -22 15 -6 -3 6 1 7 10 4 14 -6 14 -8 -2 -19 -10 -7 -22 -11 -28
-7 -5 3 -3 -3 6 -14 24 -29 34 -48 21 -40 -7 4 -12 2 -12 -3 0 -6 5 -11 10
-11 6 0 10 -5 10 -11 0 -5 -4 -8 -9 -4 -5 3 -13 1 -16 -5 -4 -6 -1 -9 7 -8 8
2 14 -9 16 -29 1 -18 3 -41 4 -50 0 -10 6 -22 12 -26 7 -6 4 -7 -6 -3 -10 3
-20 1 -23 -4 -4 -6 -1 -10 4 -10 13 0 15 -33 4 -44 -5 -4 -8 -21 -9 -37 0 -22
3 -26 13 -18 7 6 10 15 7 20 -3 5 0 9 5 9 14 0 14 -2 -2 -32 -7 -14 -18 -23
-25 -22 -7 1 -8 0 -2 -3 5 -2 8 -9 4 -14 -3 -5 -1 -9 5 -9 5 0 11 6 14 13 3 9
8 9 18 -2 12 -12 12 -13 0 -6 -11 6 -13 3 -8 -14 4 -18 3 -20 -8 -11 -11 9
-12 7 -8 -11 5 -17 3 -20 -7 -14 -9 5 -11 4 -6 -4 6 -9 11 -9 21 -1 10 8 13 5
11 -14 0 -13 -4 -22 -7 -20 -4 2 -15 -6 -25 -19 l-19 -22 23 19 c23 20 31 10
10 -14 -7 -8 -3 -6 10 4 12 11 25 16 29 13 3 -4 1 -7 -5 -7 -7 0 -12 -5 -12
-11 0 -5 4 -8 8 -5 5 3 9 -1 9 -8 0 -9 -9 -13 -23 -10 -23 4 -41 -20 -23 -31
5 -4 8 -3 7 2 -2 4 2 8 7 8 18 0 12 -29 -9 -48 l-21 -18 22 11 c21 10 23 8 22
-22 -2 -51 0 -58 16 -58 12 0 14 -7 9 -27 -7 -30 -7 -30 -5 -52 1 -11 4 -11
16 -1 13 11 14 10 9 -4 -3 -9 -1 -16 5 -16 6 0 11 -5 11 -12 0 -9 -3 -9 -12 0
-17 17 -24 15 -25 -10 0 -13 1 -17 4 -10 4 9 10 7 24 -9 10 -12 20 -26 20 -31
1 -4 2 -14 3 -20 1 -7 7 -12 14 -10 7 1 12 -2 12 -8 0 -14 -13 -13 -28 2 -9 9
-12 9 -12 -2 0 -7 -3 -10 -6 -7 -4 4 -1 13 6 22 8 10 9 15 1 15 -6 0 -10 5 -9
11 2 6 -5 13 -14 14 -16 3 -16 1 -3 -19 8 -13 12 -26 9 -29 -10 -10 17 -38 29
-30 6 4 8 0 4 -10 -3 -8 1 -21 9 -27 16 -15 19 -30 3 -30 -5 0 -8 4 -4 9 3 5
0 13 -6 17 -8 4 -9 3 -5 -4 4 -7 1 -12 -6 -13 -7 0 -3 -5 10 -11 12 -6 22 -15
22 -20 0 -5 4 -7 8 -4 5 3 9 -1 9 -9 0 -19 -2 -19 -21 0 -13 14 -15 13 -13 -4
0 -11 5 -19 10 -18 5 1 12 -4 14 -11 3 -7 -1 -11 -7 -10 -7 2 -15 -4 -17 -12
-4 -13 -3 -13 6 0 10 14 16 7 12 -13 -1 -5 2 -6 7 -3 4 2 14 1 22 -5 13 -7 12
-9 -2 -9 -10 0 -18 -4 -18 -10 0 -5 7 -7 15 -4 14 6 20 -16 17 -65 0 -8 6 -21
14 -28 8 -8 12 -19 9 -24 -8 -12 8 -12 21 1 6 6 15 5 24 -1 13 -10 13 -10 0
-7 -8 3 -23 -3 -32 -13 -14 -15 -14 -18 -2 -23 9 -3 12 -11 8 -17 -4 -8 -3 -9
4 -5 12 7 16 -5 12 -34 -1 -10 3 -9 13 5 9 11 19 17 23 12 4 -4 2 -13 -4 -19
-7 -7 -12 -17 -12 -22 0 -6 5 -4 10 4 8 12 10 11 10 -7 0 -12 -6 -24 -12 -26
-7 -3 1 -4 17 -2 40 3 62 -5 44 -16 -8 -4 -20 -3 -29 4 -8 6 -12 7 -8 3 4 -5
2 -16 -5 -25 -10 -14 -10 -14 5 -3 11 9 18 10 23 2 3 -5 13 -10 21 -10 9 0 12
5 8 12 -4 7 -3 8 5 4 18 -11 1 -28 -24 -24 -13 3 -22 0 -22 -8 0 -7 7 -10 15
-6 11 4 13 2 7 -9 -7 -11 -6 -12 7 -2 12 11 18 9 34 -9 10 -12 13 -18 7 -14
-7 4 -13 2 -13 -4 0 -6 -5 -8 -11 -4 -8 5 -8 9 1 14 8 5 8 10 2 14 -16 9 -21
-18 -7 -37 7 -9 21 -17 31 -16 18 0 18 1 -1 9 -15 6 -16 9 -4 9 9 1 18 -2 22
-5 8 -9 -4 -35 -13 -29 -5 3 -11 1 -14 -4 -13 -20 14 -21 34 -1 l20 20 -4 -23
c-2 -12 -9 -21 -16 -19 -6 1 -9 -2 -5 -8 3 -5 1 -10 -6 -10 -7 0 -9 -3 -6 -6
4 -4 18 1 31 10 16 10 27 12 31 6 4 -6 1 -9 -7 -8 -23 5 -19 -37 6 -65 26 -28
48 -38 26 -12 -16 19 -3 20 16 0 9 -8 13 -19 9 -24 -3 -5 0 -13 6 -16 5 -4 8
-14 5 -22 -3 -8 -2 -11 3 -8 5 3 12 1 16 -5 3 -5 1 -10 -4 -10 -6 0 -11 -5
-11 -11 0 -5 4 -8 9 -5 5 3 14 -1 21 -9 12 -14 7 -19 -13 -16 -5 1 -5 -4 -2
-10 5 -7 12 -6 24 5 14 15 14 18 1 26 -12 7 -10 9 6 8 12 -1 21 -9 20 -18 -1
-8 5 -14 12 -12 8 1 11 -2 7 -8 -3 -5 -1 -10 6 -10 7 0 9 -3 6 -7 -4 -3 -16 2
-27 12 -23 20 -28 11 -6 -11 8 -8 24 -14 35 -14 11 0 22 -9 26 -20 3 -11 11
-20 16 -20 5 0 9 -6 9 -12 -1 -7 -11 0 -24 15 -15 19 -28 26 -40 21 -15 -6
-14 -8 6 -23 13 -9 28 -16 33 -16 6 0 10 -12 9 -27 0 -15 4 -24 9 -21 4 3 6
10 4 17 -3 6 2 21 10 31 13 19 14 18 7 -10 l-7 -30 23 20 23 20 -17 -27 c-14
-21 -15 -31 -6 -45 10 -16 10 -16 5 4 -7 25 5 36 25 22 10 -5 11 -9 3 -9 -7 0
-10 -7 -7 -15 4 -8 10 -15 16 -15 5 0 6 5 3 10 -3 6 -2 10 3 10 6 0 13 -7 16
-16 3 -8 2 -13 -2 -10 -4 2 -14 1 -22 -4 -11 -7 -8 -9 10 -8 14 1 32 6 40 12
8 6 6 0 -5 -12 -11 -13 -15 -23 -10 -22 28 6 37 0 25 -15 -7 -9 -8 -15 -2 -15
16 0 24 33 10 42 -10 6 -10 8 -1 8 20 0 34 -35 20 -50 -7 -8 2 -5 18 5 25 16
28 16 16 2 -12 -15 -9 -21 10 -19 3 1 6 -6 6 -14 0 -12 -3 -11 -18 2 -16 14
-17 14 -15 -3 2 -10 6 -16 10 -15 5 2 20 -8 35 -22 19 -19 28 -22 28 -12 0 8
-4 13 -8 10 -4 -2 -10 0 -14 6 -3 5 1 10 10 10 9 0 19 -9 22 -20 3 -11 11 -20
18 -20 8 0 17 -9 20 -21 5 -16 10 -18 21 -8 17 14 19 -2 2 -19 -9 -9 -6 -10
12 -7 12 2 25 7 29 11 3 4 -3 4 -14 0 -16 -6 -17 -5 -8 5 9 9 16 9 26 1 8 -7
18 -8 22 -4 5 4 5 1 1 -5 -4 -7 -2 -13 3 -13 6 0 11 -5 11 -12 0 -6 -9 -3 -20
7 -19 17 -20 17 -20 1 0 -9 4 -15 9 -11 5 3 17 -5 27 -17 11 -15 14 -17 11 -6
-4 12 -1 18 9 18 8 0 14 -7 12 -16 -2 -10 4 -19 12 -21 13 -4 13 -3 0 6 -12 9
-9 11 15 8 19 -2 34 2 42 12 10 13 14 14 25 3 11 -11 10 -12 -4 -7 -13 5 -16
1 -14 -24 1 -17 4 -32 7 -33 2 -2 3 -1 2 1 -2 2 3 11 10 19 10 13 9 14 -2 7
-10 -5 -12 -4 -7 4 6 9 11 9 22 0 8 -6 17 -9 21 -5 3 3 1 6 -5 6 -7 0 -12 4
-12 8 0 5 7 9 15 9 8 0 15 -4 15 -9 0 -4 11 -7 24 -6 15 1 22 7 19 16 -3 8 3
15 16 19 19 5 25 14 23 34 -1 4 9 4 21 1 20 -5 21 -4 8 12 -12 15 -12 17 0 14
8 -2 13 2 12 8 -1 6 8 10 20 9 12 -1 26 3 30 9 6 7 7 6 4 -4 -2 -8 -10 -14
-16 -12 -7 1 -10 -2 -6 -8 4 -6 -1 -7 -12 -4 -15 5 -16 4 -3 -6 13 -10 13 -11
-1 -7 -13 4 -15 1 -12 -14 5 -19 6 -19 20 1 8 11 19 17 25 14 6 -4 8 -2 5 3
-6 9 19 41 55 69 21 16 30 17 39 2 5 -8 8 -5 7 12 -1 14 -6 31 -12 39 -8 11
-8 13 2 7 6 -4 12 -2 12 4 0 7 5 6 14 -2 8 -7 10 -14 5 -16 -5 -2 -9 -8 -9
-14 0 -6 8 -4 18 5 10 10 23 14 27 10 5 -5 3 1 -5 12 -22 30 -24 32 -16 10 6
-16 5 -17 -5 -8 -18 18 7 44 40 41 15 -1 33 2 40 7 12 7 11 10 -3 20 -14 11
-15 13 -1 18 15 6 39 -24 30 -37 -3 -3 -2 -4 2 -1 10 8 13 35 3 35 -4 0 -10 7
-14 15 -4 13 -2 14 14 5 11 -6 21 -9 21 -8 1 2 3 15 5 31 2 18 -1 25 -8 21 -7
-4 -8 -2 -4 4 4 6 13 9 22 5 11 -4 12 -9 4 -18 -8 -9 -8 -15 0 -20 6 -4 9 -1
8 7 -2 7 3 12 10 10 6 -1 11 4 10 10 -2 7 2 12 9 11 8 -2 10 4 6 14 -4 10 -2
14 5 9 17 -10 25 13 10 31 -12 14 -11 15 8 5 12 -6 26 -7 35 -1 10 6 11 9 1 9
-7 0 -11 4 -7 10 3 5 13 6 23 3 16 -6 16 -6 0 11 -10 9 -18 23 -18 29 0 7 5 4
11 -6 6 -9 15 -15 20 -11 6 3 5 12 -3 22 -11 13 -11 14 1 7 11 -6 13 -4 8 11
-7 18 -7 18 8 0 17 -22 20 -14 5 13 -8 15 -6 17 14 14 31 -6 52 20 31 40 -18
19 0 29 27 15 14 -7 16 -5 11 8 -4 12 -3 15 5 10 8 -5 10 -1 5 10 -5 13 -3 15
8 9 8 -4 11 -5 7 -1 -4 5 2 17 13 29 21 22 25 37 10 37 -6 0 -9 9 -8 19 0 11
5 17 9 15 4 -3 8 0 8 6 0 6 5 8 10 5 6 -3 10 -11 10 -16 0 -6 -4 -8 -9 -4 -5
3 -13 0 -17 -6 -4 -8 -3 -9 4 -5 7 4 12 1 12 -6 0 -8 4 -6 11 4 12 21 -6 62
-23 52 -7 -4 -8 -2 -4 5 6 8 12 9 20 2 7 -6 17 -7 21 -3 5 4 5 2 1 -5 -3 -6
-2 -14 3 -17 4 -3 8 3 7 14 0 11 4 18 9 17 6 -1 9 -6 7 -10 -1 -5 3 -5 9 -2
12 8 -3 29 -22 31 -5 1 -15 2 -21 3 -8 1 -6 6 5 12 9 6 15 14 12 19 -6 9 25
23 33 15 3 -3 1 -5 -5 -5 -18 0 -23 -28 -6 -34 10 -4 14 -2 10 8 -3 8 0 20 8
26 8 6 11 18 8 26 -4 12 -8 12 -21 2 -13 -12 -14 -11 -2 9 13 20 15 20 27 5
11 -15 12 -14 8 7 -2 12 -10 30 -17 39 -12 14 -11 14 9 2 12 -8 21 -16 21 -19
-2 -19 4 -31 14 -31 9 0 9 3 0 12 -9 9 -6 18 16 41 20 21 22 27 8 21 -15 -6
-17 -4 -10 7 14 24 16 51 2 43 -7 -4 -10 -4 -6 1 4 4 0 14 -10 22 -15 12 -14
12 9 2 20 -8 32 -8 45 0 17 11 17 11 -4 6 -20 -6 -22 -4 -13 12 5 10 12 26 15
37 4 10 12 16 20 13 8 -3 13 1 13 11 0 34 3 43 13 37 6 -3 10 -1 10 4 0 16
-11 13 -33 -7 -19 -16 -19 -16 -6 5 7 12 22 24 34 28 20 5 20 6 1 20 -11 8
-17 18 -13 21 4 4 13 2 21 -5 11 -9 13 -5 11 29 -2 24 1 38 7 34 6 -4 5 2 -1
14 -14 26 -14 32 0 32 5 0 8 -4 5 -9 -3 -5 2 -15 11 -22 15 -12 16 -12 8 1 -5
8 -10 22 -10 30 0 9 -8 14 -20 13 -20 -1 -20 -1 -1 13 11 8 24 14 28 14 5 0 4
9 -1 19 -8 14 -7 22 3 30 7 6 16 8 20 4 4 -4 4 1 0 10 -6 17 -7 17 -28 0 -21
-18 -21 -18 -3 3 9 11 14 24 10 29 -5 4 0 5 9 2 9 -3 22 1 28 9 8 9 9 14 2 14
-6 0 -13 -6 -15 -12 -3 -7 -5 -1 -4 15 1 16 8 29 19 33 21 6 23 20 6 30 -7 4
-8 3 -4 -5 9 -15 -22 -27 -36 -13 -6 6 -6 12 3 17 8 5 10 4 5 -3 -4 -7 -1 -12
7 -12 9 0 13 10 12 28 -1 15 -7 26 -14 24 -7 -1 -10 2 -6 8 9 15 37 -8 28 -24
-3 -6 -2 -8 2 -3 12 10 17 50 6 43 -5 -3 -11 0 -14 8 -6 15 9 16 33 2 12 -7
13 -6 3 5 -14 14 -18 33 -5 25 4 -2 8 6 8 20 0 13 -4 24 -9 24 -5 0 -7 7 -4
15 4 8 1 17 -5 21 -7 5 -8 2 -3 -7 6 -11 5 -12 -5 -2 -20 18 -6 27 22 13 21
-10 20 -9 -4 14 -38 34 -35 42 5 15 28 -20 30 -21 17 -4 -8 11 -19 23 -25 27
-6 5 -4 8 5 8 12 1 12 3 -2 11 -13 7 -15 15 -8 33 5 13 6 28 2 32 -4 5 -1 4 7
-2 10 -10 10 -16 1 -35 -7 -13 -9 -21 -5 -17 5 4 15 2 24 -5 14 -10 14 -10 3
5 -8 9 -11 21 -8 27 9 14 -4 41 -19 41 -8 0 -16 3 -18 8 -3 4 6 7 19 7 13 0
24 -4 24 -9 0 -5 3 -7 6 -4 3 4 0 16 -6 28 -11 20 -10 21 12 15 20 -5 20 -4 5
5 -9 6 -21 9 -26 6 -9 -6 -5 23 6 54 11 27 11 40 2 34 -5 -3 -9 0 -9 6 0 6 -5
8 -12 4 -7 -5 -8 -3 -3 7 13 20 13 49 1 49 -6 0 -4 5 4 10 13 9 13 11 0 20 -8
5 -10 10 -4 10 11 0 24 32 23 54 -1 5 5 13 13 18 10 8 10 9 -2 5 -8 -2 -14 -9
-13 -15 2 -6 -4 -9 -13 -5 -11 4 -12 8 -4 13 6 4 10 11 9 16 -3 20 2 34 12 34
8 0 8 -5 -1 -15 -7 -8 -8 -15 -4 -15 5 0 15 9 22 20 8 14 9 19 1 18 -6 -2 -14
3 -17 11 -3 9 0 11 8 6 9 -6 11 -4 6 4 -5 7 -14 10 -22 7 -7 -3 -16 0 -20 6
-4 7 -3 8 4 4 7 -4 12 -2 12 5 0 6 12 22 26 34 18 15 21 22 10 22 -9 0 -16 -4
-16 -8 0 -5 -10 -13 -22 -19 -22 -11 -22 -10 -4 4 11 9 16 16 12 16 -5 0 -4 6
2 13 6 7 7 18 2 26 -4 8 -6 21 -3 30 3 10 2 12 -4 6 -10 -12 -58 -13 -69 -2
-5 4 -2 5 7 2 10 -4 15 1 16 17 2 16 0 19 -6 9 -5 -8 -16 -11 -24 -8 -12 4
-15 1 -11 -11 3 -9 -1 -7 -8 6 -8 12 -17 20 -21 16 -4 -4 -2 -13 4 -20 7 -8 6
-14 -2 -20 -7 -4 -9 -3 -5 4 3 6 2 13 -4 17 -6 4 -8 10 -5 15 3 4 -3 14 -12
21 -14 12 -16 12 -8 0 6 -11 4 -13 -8 -8 -10 4 -14 2 -11 -7 3 -7 -2 -13 -11
-13 -11 0 -14 7 -10 21 5 19 5 19 -5 3 -12 -19 -58 -17 -71 5 -9 15 -57 19
-66 5 -4 -6 -1 -7 7 -2 9 6 11 4 5 -4 -5 -9 -10 -10 -18 -2 -15 15 -47 14 -47
-1 0 -7 -5 -5 -11 5 -5 9 -7 22 -3 29 4 6 3 8 -4 4 -6 -3 -18 4 -28 16 -11 15
-14 17 -11 6 4 -12 1 -18 -8 -18 -8 0 -14 -4 -13 -9 3 -8 -2 -11 -17 -11 -3 0
-1 8 4 18 10 19 11 18 -56 24 -10 0 -26 -2 -35 -7 -11 -4 -18 -3 -18 5 0 6 4
9 9 6 5 -3 15 2 22 12 13 16 13 16 -5 2 -18 -14 -19 -13 -13 3 11 28 -8 19
-21 -10 -9 -22 -10 -23 -6 -4 4 15 2 21 -4 17 -14 -8 -43 4 -36 15 3 5 -2 6
-10 3 -9 -3 -13 -10 -10 -15 3 -5 -2 -6 -11 -3 -14 6 -14 9 2 28 10 11 11 15
3 9 -16 -14 -34 -18 -26 -5 2 4 -6 8 -19 8 -13 0 -21 -4 -19 -8 3 -5 9 -6 14
-3 5 3 11 1 14 -4 12 -19 -11 -20 -31 -1 -12 10 -25 16 -29 12 -5 -4 -3 0 4 9
10 14 6 16 -29 17 -40 2 -74 23 -61 37 4 5 1 5 -5 1 -8 -4 -13 -2 -13 5 0 7
-3 9 -7 6 -3 -4 2 -16 12 -27 10 -11 15 -20 10 -20 -12 0 -45 42 -40 51 3 4 1
10 -4 14 -6 3 -8 -3 -6 -14 2 -14 -1 -18 -11 -14 -7 3 -12 9 -9 13 3 5 1 11
-5 15 -6 4 -8 10 -5 15 3 5 1 11 -4 14 -10 7 -9 -13 2 -31 5 -8 1 -11 -12 -10
-11 1 -17 6 -14 14 4 9 0 11 -13 6 -11 -4 -15 -3 -10 5 3 6 2 13 -4 17 -6 4
-7 11 -4 17 4 7 2 8 -5 4 -6 -4 -9 -11 -6 -16 3 -4 -2 -10 -10 -14 -8 -3 -15
0 -15 6 0 9 -3 9 -12 0 -7 -7 -17 -12 -22 -12 -6 0 -3 5 7 11 20 12 23 30 5
27 -7 -2 -12 3 -10 10 1 6 -3 12 -9 12 -6 0 -8 -9 -4 -22 7 -23 7 -23 -9 -3
-13 16 -15 17 -10 3 3 -10 2 -18 -3 -18 -5 0 -9 9 -10 20 -1 11 3 20 10 20 6
0 2 7 -9 15 -21 16 -23 16 -41 8z m-173 -71 c0 -5 -11 -15 -25 -22 -13 -7 -22
-17 -19 -22 9 -15 -3 -9 -17 9 -8 9 -9 14 -3 10 7 -4 23 2 35 13 28 22 29 23
29 12z m120 -82 c-7 -13 -7 -21 0 -25 6 -4 9 -1 8 7 -2 7 3 12 10 10 7 -1 12
5 10 14 -2 9 3 19 10 21 6 3 12 0 12 -7 0 -6 -5 -8 -12 -4 -7 4 -8 3 -4 -5 6
-9 11 -9 24 1 12 10 14 10 8 1 -4 -7 -2 -13 3 -13 6 0 11 5 11 10 0 6 6 5 14
-2 10 -9 10 -15 3 -20 -20 -12 0 -20 22 -9 13 8 22 8 26 1 4 -6 11 -8 16 -4 5
3 8 0 7 -7 -2 -6 3 -14 11 -17 10 -3 11 0 5 9 -7 12 -5 12 9 0 9 -7 17 -19 17
-25 0 -7 -3 -6 -8 2 -7 9 -15 6 -37 -14 -16 -15 -25 -19 -22 -10 4 9 2 16 -4
16 -6 0 -7 5 -3 12 4 7 3 8 -4 4 -6 -4 -9 -13 -5 -21 3 -8 0 -15 -6 -15 -6 0
-10 6 -8 13 1 6 -3 11 -10 10 -6 -2 -15 6 -18 17 -4 11 -11 20 -16 20 -6 0 -7
-4 -4 -10 3 -5 2 -10 -3 -10 -15 0 -22 28 -9 34 9 3 9 5 0 5 -7 1 -20 -11 -30
-25 -16 -25 -17 -25 -30 -8 -10 13 -13 14 -14 3 0 -8 -5 -3 -10 11 -8 20 -12
22 -19 10 -5 -8 -10 -10 -10 -4 0 6 8 18 17 25 11 10 14 10 9 2 -4 -8 -1 -13
8 -13 15 0 21 12 17 33 -1 5 3 6 9 2 7 -4 7 -12 0 -25z m-50 -35 c4 3 11 -2
14 -11 7 -19 -20 -43 -43 -39 -9 2 -20 4 -24 4 -5 1 -5 6 -2 11 4 6 11 7 17 4
7 -4 8 -2 4 5 -4 6 -11 9 -15 7 -4 -3 -13 0 -21 6 -12 8 -12 9 3 4 11 -3 22 2
29 14 11 17 14 17 21 5 4 -9 12 -13 17 -10z m467 9 c-3 -3 -12 -4 -19 -1 -8 3
-5 6 6 6 11 1 17 -2 13 -5z m-542 -48 c-10 -7 -31 -12 -47 -11 -15 1 -25 -1
-22 -6 3 -5 10 -7 15 -4 5 4 12 -1 15 -9 5 -13 9 -12 24 7 17 20 20 21 35 6
15 -15 15 -16 -7 -15 -13 1 -29 -5 -36 -14 -10 -11 -15 -12 -18 -2 -3 6 -10
12 -15 12 -6 0 -7 -5 -3 -12 5 -8 2 -9 -11 -4 -15 5 -16 4 -5 -9 11 -13 10
-14 -5 -9 -14 6 -16 4 -10 -6 5 -8 4 -11 -3 -6 -6 4 -20 1 -31 -6 -23 -14 -26
-12 -35 19 -6 19 -4 22 10 16 12 -4 15 -3 10 5 -7 12 6 17 17 6 9 -10 -4 -34
-16 -27 -6 3 -7 1 -3 -6 5 -8 17 -2 37 20 31 33 39 50 14 29 -9 -7 -15 -8 -15
-2 0 12 26 24 58 27 12 1 25 5 29 8 3 4 13 7 22 7 12 0 11 -3 -4 -14z m350 5
c-3 -5 -1 -12 5 -16 6 -4 7 -11 4 -17 -4 -7 -2 -8 4 -4 6 4 8 14 5 24 -3 9 10
0 30 -20 21 -20 37 -34 37 -30 0 5 -5 13 -11 19 -7 7 -6 12 6 17 9 3 13 2 10
-4 -3 -6 -2 -10 4 -10 5 0 8 -9 6 -20 -3 -13 0 -18 7 -14 7 5 9 2 6 -8 -4 -9
0 -15 8 -15 12 0 12 4 -1 23 -9 14 -11 25 -5 29 6 3 10 1 10 -5 0 -6 4 -8 10
-5 6 4 7 -1 3 -11 -5 -13 -3 -15 8 -8 25 15 41 14 34 -3 -5 -16 10 -33 29 -33
6 0 1 6 -10 14 -18 14 -18 15 4 13 12 -1 22 -8 22 -17 0 -13 1 -13 10 0 8 13
10 12 10 -3 0 -10 5 -15 10 -12 6 4 18 1 27 -7 14 -11 16 -11 11 4 -5 11 -2
15 10 14 9 -2 18 -8 20 -14 2 -7 9 -9 15 -5 7 4 5 -2 -3 -12 -15 -19 -15 -19
15 -1 17 10 27 15 23 11 -14 -15 21 -34 70 -37 28 -2 48 -6 45 -11 -2 -4 -9
-5 -14 -2 -5 4 -9 1 -9 -5 0 -7 7 -9 16 -6 8 3 23 2 33 -3 13 -7 18 -6 18 4 0
7 -6 11 -14 8 -7 -3 -13 -3 -13 0 0 3 7 7 15 11 10 4 20 -5 29 -29 8 -19 18
-35 21 -35 3 0 3 5 0 10 -7 11 23 46 31 37 3 -3 1 -16 -6 -29 -10 -20 -10 -21
3 -6 8 10 17 15 20 11 4 -3 7 2 7 13 0 15 2 16 9 5 5 -7 14 -11 20 -7 6 4 9 2
5 -7 -3 -8 2 -14 11 -14 9 0 14 6 11 13 -3 8 0 11 10 7 7 -3 14 -9 14 -13 0
-14 -29 -32 -41 -24 -8 5 -9 3 -4 -6 6 -10 4 -12 -8 -7 -9 3 -19 2 -22 -3 -4
-6 -15 -4 -28 4 -12 8 -30 12 -39 11 -10 -2 -18 0 -18 5 0 4 -7 11 -16 14 -13
5 -14 3 -6 -6 8 -10 5 -13 -12 -13 -13 0 -23 5 -23 12 0 7 4 10 9 7 4 -3 8 0
8 5 0 14 -13 14 -28 -1 -9 -9 -12 -9 -12 0 0 7 -8 12 -17 12 -10 0 -27 7 -37
15 -17 13 -22 13 -40 -3 -10 -9 -16 -11 -12 -4 6 9 2 12 -10 10 -11 -2 -22 -7
-25 -12 -4 -5 -10 1 -14 13 -4 12 -15 21 -26 21 -13 0 -18 -4 -13 -12 4 -7 3
-8 -5 -4 -6 4 -8 12 -5 18 5 8 1 9 -10 5 -10 -4 -15 -3 -11 3 3 6 1 10 -5 10
-6 0 -9 4 -6 9 4 5 -2 8 -11 6 -10 -2 -22 -4 -26 -4 -5 -1 -5 -6 -1 -13 5 -7
3 -8 -5 -4 -7 5 -10 14 -7 22 3 8 0 11 -9 8 -7 -3 -22 -1 -33 5 -12 6 -23 7
-30 0 -7 -5 -10 -6 -7 -3 2 4 -2 13 -10 20 -15 15 -29 19 -21 6 3 -5 -2 -9
-10 -9 -10 0 -11 4 -4 11 5 5 10 14 10 20 0 6 -5 5 -12 -2 -15 -15 -28 -15
-28 -1 0 5 4 8 8 5 4 -2 8 4 8 15 0 19 -1 18 -19 -3 -10 -13 -16 -17 -12 -10
7 13 -10 17 -18 5 -2 -5 -2 -2 0 6 2 8 -2 11 -12 7 -11 -4 -14 -2 -9 6 5 7 1
9 -13 6 -12 -3 -20 0 -20 8 0 15 24 27 37 19 5 -3 11 -1 15 5 3 5 8 10 11 10
3 0 3 -4 -1 -9z m475 -46 c5 3 10 4 10 1 0 -3 -10 -10 -21 -17 -13 -7 -19 -7
-15 -1 3 6 2 13 -4 17 -5 3 -10 1 -10 -5 0 -6 -5 -8 -11 -4 -8 4 -7 9 2 15 7
4 19 3 26 -2 7 -6 17 -8 23 -4z m-1342 -7 c-2 -7 3 -12 10 -10 8 1 11 -2 7 -8
-5 -8 -11 -8 -21 1 -7 6 -11 15 -8 20 8 13 14 11 12 -3z m352 -47 l0 -26 -21
25 c-17 21 -19 22 -10 3 6 -12 11 -28 10 -35 0 -10 -2 -10 -6 0 -4 10 -8 10
-19 1 -8 -6 -24 -13 -37 -14 -36 -4 -38 -5 -34 -12 3 -5 -13 -7 -35 -6 -30 1
-38 -2 -34 -13 3 -7 0 -16 -6 -20 -6 -4 -8 -3 -5 2 3 6 2 16 -3 24 -7 11 -12
11 -23 2 -7 -7 -17 -9 -20 -5 -4 3 -13 0 -22 -7 -12 -10 -13 -16 -3 -29 12
-14 11 -14 -4 -3 -9 8 -21 11 -26 9 -4 -3 -14 -1 -22 4 -13 8 -13 10 0 19 9 6
10 10 3 10 -19 0 -26 -19 -13 -35 9 -11 7 -14 -12 -12 -13 0 -26 6 -30 12 -5
6 -8 2 -8 -9 0 -16 -2 -17 -17 -5 -9 8 -14 9 -10 3 4 -7 0 -14 -7 -17 -10 -4
-14 1 -13 14 1 10 5 20 9 20 4 1 13 2 19 3 6 0 17 12 25 26 13 22 15 22 11 4
-3 -12 0 -28 5 -35 7 -12 9 -11 7 1 -3 27 1 37 14 38 6 1 34 3 61 5 37 3 51 8
56 22 6 17 7 17 13 2 4 -10 12 -14 22 -11 8 3 13 10 10 14 -5 8 17 20 44 26 8
1 18 9 22 16 5 7 9 8 9 3 0 -6 -4 -15 -10 -21 -6 -6 -5 -15 1 -24 9 -13 10
-13 6 0 -2 9 7 20 22 28 14 7 18 10 8 7 -10 -3 -16 -1 -13 4 3 5 19 11 36 15
22 4 29 10 24 18 -6 9 -3 9 9 -1 9 -7 17 -25 17 -40z m1070 26 c0 -7 -4 -6
-10 3 -8 12 -10 12 -10 1 0 -8 -3 -12 -6 -8 -9 9 6 28 17 22 5 -4 9 -12 9 -18z
m140 -18 c0 -4 -7 -9 -15 -13 -9 -3 -15 0 -15 8 0 7 7 13 15 13 8 0 15 -4 15
-8z m136 -29 c0 -12 -4 -16 -9 -11 -5 5 -6 14 -3 20 10 15 12 14 12 -9z
m-1611 -10 c3 -5 1 -10 -4 -10 -6 0 -11 5 -11 10 0 6 2 10 4 10 3 0 8 -4 11
-10z m1182 -12 c-3 -8 -6 -5 -6 6 -1 11 2 17 5 13 3 -3 4 -12 1 -19z m-182 3
c3 -5 1 -12 -5 -16 -5 -3 -10 1 -10 9 0 18 6 21 15 7z m349 -51 c-6 -6 -10 -3
-10 10 0 13 4 16 10 10 7 -7 7 -13 0 -20z m400 14 c3 -8 2 -12 -4 -9 -6 3 -10
10 -10 16 0 14 7 11 14 -7z m-1955 -16 c-12 -22 -12 -22 14 -5 25 16 26 16 24
-3 -1 -13 -6 -19 -16 -15 -10 4 -11 2 -3 -8 6 -7 7 -18 3 -26 -7 -10 -10 -9
-16 8 -3 11 -10 21 -15 21 -5 0 -7 -6 -4 -14 4 -10 0 -13 -13 -12 -10 2 -24
-1 -30 -7 -9 -6 -13 -6 -13 2 0 6 5 11 11 11 5 0 7 5 3 11 -4 8 -12 2 -21 -15
-15 -28 -23 -34 -19 -13 5 30 18 57 27 57 6 0 7 5 3 12 -4 6 3 4 16 -5 22 -15
24 -15 37 3 19 27 27 25 12 -2z m75 14 c3 -5 -1 -9 -9 -9 -8 0 -15 4 -15 9 0
4 4 8 9 8 6 0 12 -4 15 -8z m184 -7 c-11 -11 -48 -13 -48 -3 0 5 7 8 15 5 8
-4 17 -2 21 4 3 6 9 8 12 5 3 -3 3 -8 0 -11z m1162 -31 c0 -7 -25 1 -37 13
-22 20 -14 24 12 7 14 -9 25 -18 25 -20z m-1519 12 c12 7 11 2 -3 -32 -8 -19
-20 -29 -33 -28 -11 0 -26 -4 -33 -9 -7 -6 -14 -8 -16 -6 -1 2 -10 14 -18 27
-13 19 -17 20 -21 8 -4 -9 -1 -15 5 -13 5 1 12 -6 13 -16 3 -13 0 -15 -9 -8
-8 7 -12 5 -13 -10 -1 -11 2 -17 7 -14 5 3 12 1 15 -5 4 -6 3 -10 -2 -9 -18 3
-47 -3 -35 -8 6 -2 12 -9 12 -14 0 -6 -4 -8 -9 -5 -5 3 -14 -1 -21 -9 -7 -8
-17 -15 -22 -15 -6 0 -5 7 2 15 7 8 8 15 3 15 -5 0 -10 7 -10 15 0 12 3 12 15
2 13 -10 14 -9 5 8 -11 22 -7 46 11 57 8 6 7 8 -1 8 -7 0 -17 -8 -22 -17 -6
-10 -11 -14 -11 -9 0 18 32 45 48 39 9 -4 13 -2 9 4 -4 6 2 10 12 9 19 -1 53
-30 46 -40 -3 -3 -2 -4 2 -1 4 3 8 16 10 28 2 13 0 17 -5 10 -5 -9 -12 -6 -21
10 -13 20 -13 21 2 8 14 -11 17 -11 17 0 0 12 2 11 9 0 11 -17 51 -26 51 -12
0 6 -9 8 -20 6 -12 -2 -18 0 -15 6 4 5 11 7 16 4 5 -4 9 0 10 7 0 10 2 10 6 0
2 -6 9 -10 14 -6z m1905 -21 c-3 -9 -10 -14 -15 -10 -5 3 -12 1 -15 -4 -9 -14
19 -7 40 9 11 9 15 10 10 3 -4 -7 -3 -13 1 -13 5 0 15 6 23 13 12 10 12 9 0
-7 -12 -16 -12 -20 1 -30 16 -11 23 -49 7 -40 -4 3 -8 0 -8 -5 0 -6 5 -11 10
-11 6 0 10 -4 10 -10 0 -5 -6 -7 -14 -4 -8 3 -17 1 -21 -5 -3 -7 0 -8 9 -5 11
4 16 0 16 -11 0 -9 -4 -14 -9 -11 -5 3 -11 0 -14 -8 -4 -9 2 -12 19 -10 21 2
23 0 13 -12 -6 -7 -15 -12 -18 -9 -4 2 -8 -2 -8 -10 0 -8 5 -13 10 -12 5 1 12
-4 15 -12 2 -8 0 -11 -6 -7 -6 4 -9 -4 -7 -19 1 -14 -2 -28 -7 -31 -5 -3 -4
-12 3 -20 6 -8 8 -14 3 -14 -5 0 -2 -5 6 -10 11 -7 11 -10 2 -10 -7 0 -10 -5
-6 -12 4 -7 3 -8 -5 -4 -6 4 -9 11 -6 16 3 4 -3 14 -13 21 -15 12 -16 12 -6
-1 6 -8 10 -25 9 -37 -1 -12 2 -20 6 -18 4 3 10 -2 13 -11 4 -11 2 -15 -7 -11
-8 3 -14 -1 -14 -9 0 -7 3 -11 7 -9 3 2 12 -6 20 -18 12 -20 12 -21 -3 -8 -20
16 -22 8 -6 -21 9 -17 9 -20 -3 -15 -9 3 -15 -1 -15 -9 0 -10 7 -12 20 -8 17
5 18 4 6 -9 -8 -8 -22 -13 -31 -11 -10 1 -18 -2 -18 -8 0 -5 6 -8 14 -5 8 3
20 -1 27 -9 9 -12 9 -13 -2 -9 -10 4 -14 -5 -15 -35 -1 -21 2 -37 6 -35 4 2 7
-9 6 -24 -1 -16 -4 -27 -8 -24 -5 2 -8 -1 -8 -7 0 -6 -4 -9 -8 -6 -4 2 -9 -4
-9 -15 -1 -10 5 -19 12 -19 9 0 12 -6 9 -15 -4 -8 0 -23 7 -33 13 -16 12 -16
-4 -2 -17 12 -20 12 -28 -3 -6 -9 -17 -14 -27 -11 -14 5 -15 4 -2 -5 9 -6 18
-7 24 -1 15 15 22 12 23 -10 1 -11 -3 -20 -8 -20 -6 0 -7 5 -3 12 4 7 3 8 -5
4 -6 -4 -8 -12 -5 -18 5 -7 2 -9 -8 -6 -8 4 -21 2 -29 -3 -9 -6 -3 -8 19 -5
18 2 35 -1 38 -6 3 -4 0 -7 -7 -6 -6 2 -14 -3 -17 -11 -2 -8 0 -11 6 -7 6 3
14 1 18 -5 4 -8 3 -9 -4 -5 -7 4 -12 2 -12 -4 0 -6 -6 -8 -12 -4 -10 5 -10 4
-1 -6 8 -9 7 -23 -5 -56 -9 -24 -20 -44 -25 -44 -4 0 -6 -4 -2 -10 3 -5 13 -6
23 -3 14 5 14 3 -2 -9 -11 -8 -16 -20 -12 -27 8 -12 -14 -12 -24 0 -3 3 -14
-3 -25 -14 l-20 -20 20 10 c11 6 26 8 34 5 9 -3 4 -9 -15 -16 -24 -10 -26 -13
-11 -19 10 -4 16 -3 13 1 -3 5 1 9 9 9 19 0 19 -13 0 -20 -8 -4 -12 -15 -10
-26 2 -13 -1 -18 -10 -15 -7 3 -16 0 -21 -7 -4 -7 -3 -10 4 -5 6 3 14 1 18 -5
4 -7 3 -9 -4 -5 -6 3 -13 2 -17 -4 -3 -5 -2 -10 4 -10 5 0 9 -9 8 -19 0 -11
-5 -17 -9 -15 -5 3 -6 11 -2 17 3 7 -2 3 -10 -7 -16 -19 -17 -19 -20 7 0 6 -7
12 -13 12 -16 0 -17 10 -4 33 9 15 11 14 20 -8 5 -14 10 -18 10 -10 1 9 -7 26
-16 39 -9 14 -11 21 -5 17 12 -7 35 27 25 38 -3 3 2 16 13 28 16 18 16 20 3
15 -13 -4 -16 -1 -12 14 3 11 9 22 14 25 5 3 6 -2 3 -10 -3 -9 -1 -16 6 -16 6
0 8 5 5 10 -3 6 0 10 7 10 9 0 9 3 2 8 -21 14 -24 42 -6 60 10 10 16 24 14 32
-3 7 0 10 6 6 6 -3 14 -1 18 5 4 7 3 9 -3 6 -6 -4 -17 0 -24 9 -11 13 -9 15
12 11 13 -2 18 -2 12 0 -7 3 -13 9 -13 14 0 6 -6 7 -12 3 -10 -6 -10 -4 -2 7
6 8 10 22 9 31 -2 10 1 21 6 24 6 4 6 10 0 18 -8 9 -7 13 4 13 8 0 11 -5 8
-10 -3 -6 -1 -7 5 -3 7 4 8 15 2 30 -6 17 -4 30 6 44 10 14 11 23 4 27 -7 5
-5 12 7 21 16 13 16 14 1 8 -10 -3 -18 -2 -19 2 0 5 -2 17 -4 27 -2 9 1 15 6
11 5 -3 7 -10 4 -15 -4 -5 -1 -9 4 -9 15 0 14 12 -4 38 -15 20 -15 21 2 15 16
-6 17 -5 3 12 -13 17 -13 18 0 10 12 -6 13 -5 3 5 -10 11 -9 16 5 27 16 13 16
13 0 11 -9 -2 -16 2 -15 7 1 6 7 10 13 9 6 -1 11 5 11 13 0 8 -6 12 -13 9 -8
-3 -16 0 -20 6 -4 7 -3 8 5 4 8 -5 10 1 6 23 -3 17 -1 31 4 31 6 0 8 -9 6 -20
-2 -11 0 -22 4 -24 14 -9 7 49 -8 62 -9 8 -10 10 -3 7 9 -5 13 -1 11 11 -2 11
0 25 4 32 5 7 3 12 -5 12 -10 0 -9 3 2 9 8 6 17 8 20 6 4 -2 7 2 7 10 0 8 -4
15 -9 15 -4 0 -8 -4 -8 -10 0 -5 -8 -10 -17 -10 -13 0 -14 3 -6 8 7 4 11 18 8
30 -2 13 -1 21 3 18 4 -2 13 3 21 11 12 13 11 14 -9 8 -13 -4 -20 -3 -17 2 4
5 9 24 12 42 4 25 2 31 -7 25 -7 -4 -10 -4 -6 1 4 4 2 15 -5 23 -10 13 -9 14
2 7 11 -6 13 -4 8 9 -4 9 -3 15 2 11 11 -6 9 14 -3 33 -6 10 -11 11 -19 3 -6
-6 -16 -11 -21 -11 -6 0 -4 5 4 11 12 8 7 9 -17 6 -23 -2 -33 1 -33 10 0 8 4
11 10 8 6 -3 7 1 4 10 -6 13 -10 11 -25 -12 -11 -15 -19 -22 -19 -15 0 9 -7 8
-27 -4 -26 -15 -27 -15 -6 1 12 9 32 25 44 36 24 20 39 24 39 10 0 -5 7 -12
16 -15 15 -6 15 -4 3 11 -9 11 -10 14 -2 9 27 -15 53 -15 53 1 0 9 3 14 6 10
4 -3 4 -13 0 -22z m-2166 -127 c10 -21 10 -21 -3 -6 -8 10 -18 14 -22 10 -5
-4 -5 -1 -1 6 10 17 14 15 26 -10z m145 -8 c-1 -11 -5 -23 -10 -27 -4 -5 -6
-3 -2 2 3 6 -4 12 -16 12 -20 2 -20 1 -4 -8 9 -6 15 -14 12 -20 -3 -5 2 -6 12
-3 13 4 15 3 5 -4 -17 -12 -17 -23 -1 -33 8 -4 10 -11 6 -16 -5 -4 -12 -1 -16
6 -7 11 -13 11 -27 1 -16 -9 -16 -11 -2 -6 20 6 34 -10 16 -18 -7 -3 -5 -4 6
-3 11 1 20 -5 22 -16 2 -15 0 -16 -12 -6 -20 16 -17 3 4 -18 9 -10 16 -17 14
-16 -2 1 -12 -7 -23 -18 -11 -11 -25 -16 -36 -12 -15 6 -15 7 3 14 10 4 13 8
7 8 -7 1 -13 6 -13 11 0 7 8 7 23 -1 17 -9 19 -9 11 0 -6 7 -20 14 -30 15 -11
2 -17 7 -14 12 3 5 12 8 20 6 8 -1 4 4 -10 12 -14 9 -20 15 -14 16 10 0 14 13
15 53 0 10 5 15 11 11 7 -4 8 -2 4 5 -4 6 -12 9 -17 6 -17 -11 -9 12 11 30 11
10 20 14 20 10 0 -5 5 -4 12 3 15 15 15 16 13 -8z m-60 -59 c3 -5 2 -12 -3
-15 -5 -3 -9 1 -9 9 0 17 3 19 12 6z m2152 -87 c-3 -3 -12 -4 -19 -1 -8 3 -5
6 6 6 11 1 17 -2 13 -5z m78 -46 c4 -3 2 -9 -3 -12 -5 -3 -15 1 -21 8 -10 11
-9 14 3 12 9 -1 18 -5 21 -8z m-2170 -26 c-11 -2 -24 -9 -30 -14 -7 -7 -3 -8
11 -4 18 5 21 3 19 -17 -2 -13 1 -30 5 -37 11 -17 -10 -61 -24 -53 -6 4 -5 -1
3 -10 7 -9 17 -15 21 -12 5 3 11 1 15 -5 3 -5 -3 -10 -14 -10 -12 0 -24 0 -28
0 -5 0 -9 5 -9 10 -1 6 -2 15 -3 20 0 6 -6 9 -12 8 -6 -2 -13 5 -14 15 -2 9 1
15 6 11 5 -3 6 -11 2 -17 -3 -7 4 -3 16 8 13 11 25 19 28 17 3 -2 7 -1 10 1 7
8 -20 3 -33 -6 -7 -4 -15 0 -18 9 -3 8 -2 12 4 9 6 -3 10 -1 10 4 0 6 -5 11
-12 11 -6 0 -3 7 8 15 14 12 15 14 2 9 -13 -4 -15 -1 -11 18 4 19 3 20 -7 8
-9 -12 -11 -12 -8 -1 2 8 12 15 22 17 10 1 20 5 23 8 3 2 12 2 21 -2 15 -5 14
-7 -3 -10z m-118 -8 c-3 -3 -12 -4 -19 -1 -8 3 -5 6 6 6 11 1 17 -2 13 -5z
m-27 -18 c0 -3 -4 -8 -10 -11 -5 -3 -10 -1 -10 4 0 6 5 11 10 11 6 0 10 -2 10
-4z m2310 -46 c0 -5 -4 -10 -10 -10 -5 0 -10 5 -10 10 0 6 5 10 10 10 6 0 10
-4 10 -10z m-2140 -54 c0 -2 -7 -7 -16 -10 -8 -3 -12 -2 -9 4 6 10 25 14 25 6z
m-68 -25 c-11 -6 -10 -10 5 -16 10 -5 24 -7 31 -6 6 1 12 -5 12 -14 0 -8 4
-15 8 -15 4 0 8 -10 9 -22 2 -21 0 -21 -13 5 -17 31 -21 33 -21 12 0 -8 4 -15
9 -15 4 0 8 -7 8 -15 0 -8 5 -15 10 -15 6 0 10 -4 10 -10 0 -5 -7 -7 -15 -4
-11 5 -13 2 -9 -10 3 -9 11 -13 17 -9 6 4 8 0 4 -10 -3 -9 -2 -19 4 -23 6 -4
6 -11 -2 -20 -6 -8 -8 -14 -4 -14 4 0 1 -8 -6 -17 -12 -15 -12 -16 3 -10 10 3
20 1 24 -5 4 -7 3 -8 -4 -4 -16 9 -15 -7 0 -22 9 -9 9 -12 0 -12 -7 0 -12 -5
-12 -11 0 -5 4 -8 8 -5 5 3 9 -1 9 -9 0 -8 -3 -15 -6 -15 -12 0 -33 18 -31 26
1 5 -4 10 -12 12 -9 2 -9 1 -2 -5 6 -4 10 -16 9 -25 -2 -10 2 -15 10 -12 9 4
13 -2 11 -20 -2 -14 1 -23 6 -20 5 3 7 12 4 20 -8 22 2 17 15 -7 8 -17 8 -20
-1 -14 -9 5 -10 1 -5 -14 7 -22 -10 -30 -19 -8 -2 6 -4 3 -3 -8 2 -11 6 -26
10 -32 5 -8 3 -13 -7 -13 -9 0 -15 3 -15 8 1 4 1 26 0 50 -1 30 -5 41 -13 36
-6 -4 -8 -3 -4 4 3 6 2 13 -3 17 -6 3 -7 13 -4 22 5 12 3 14 -8 8 -11 -6 -11
-5 -2 5 7 8 8 21 4 34 -10 26 -8 66 3 85 7 11 5 13 -7 8 -12 -4 -14 -2 -10 10
3 8 0 19 -8 24 -8 5 -9 9 -3 9 6 0 11 6 11 13 0 6 2 17 3 22 1 6 2 19 1 30 -1
17 -3 18 -12 5 -9 -13 -10 -12 -5 2 3 10 1 20 -5 23 -12 8 -2 25 14 25 8 0 8
-3 -1 -9z m5 -67 c-3 -3 -12 -4 -19 -1 -8 3 -5 6 6 6 11 1 17 -2 13 -5z m2178
-74 c3 -5 1 -10 -4 -10 -6 0 -11 5 -11 10 0 6 2 10 4 10 3 0 8 -4 11 -10z
m-138 -6 c-3 -3 -12 -4 -19 -1 -8 3 -5 6 6 6 11 1 17 -2 13 -5z m58 -24 c-3
-5 -12 -10 -18 -10 -7 0 -6 4 3 10 19 12 23 12 15 0z m83 -7 c-12 -15 -22 -18
-14 -4 4 5 0 11 -6 14 -7 3 -3 4 9 4 17 -1 19 -4 11 -14z m-2245 -39 c10 -11
-5 -34 -22 -34 -13 1 -13 3 4 12 19 11 19 11 0 19 -15 6 -16 8 -4 8 9 1 18 -2
22 -5z m11 -103 c3 -5 -1 -11 -9 -14 -9 -4 -12 -1 -8 9 6 16 10 17 17 5z m146
-81 c-10 -6 -11 -10 -2 -10 6 0 11 -3 11 -7 -3 -21 2 -33 13 -27 7 4 8 3 4 -5
-4 -6 -12 -9 -17 -6 -5 4 0 -9 11 -28 12 -19 20 -39 18 -43 -1 -5 4 -20 11
-33 8 -14 9 -21 2 -17 -7 5 -10 -1 -7 -16 3 -13 5 -26 5 -30 1 -5 8 -8 16 -8
11 0 14 -7 11 -26 -4 -19 0 -27 17 -34 13 -5 16 -9 7 -9 -9 -1 -26 7 -39 16
-14 9 -21 11 -17 5 4 -7 3 -12 -2 -12 -6 0 -13 7 -16 16 -3 8 -11 12 -17 9 -6
-4 -5 2 2 13 7 12 17 19 21 16 4 -3 5 2 2 10 -3 9 -13 16 -21 16 -8 0 -11 5
-8 10 3 6 0 10 -7 11 -9 0 -10 2 -1 5 7 3 9 12 6 20 -3 9 0 14 7 12 7 -2 14 7
16 19 l4 23 -23 -23 c-12 -12 -21 -26 -19 -30 1 -5 -2 -6 -8 -2 -8 5 -7 11 1
21 9 11 8 14 -2 14 -11 0 -11 2 1 10 14 9 7 15 -14 11 -5 -1 -4 5 3 13 7 9 17
14 21 11 5 -3 12 0 16 6 4 8 3 9 -4 5 -7 -4 -12 -2 -12 4 0 6 -10 15 -22 20
-21 8 -22 9 -3 11 11 1 24 1 30 -1 5 -1 1 7 -8 18 -14 15 -15 21 -5 25 22 9
34 7 18 -3z m-20 -66 c0 -8 -19 -13 -24 -6 -3 5 1 9 9 9 8 0 15 -2 15 -3z
m2008 -79 c-3 -3 -9 2 -12 12 -6 14 -5 15 5 6 7 -7 10 -15 7 -18z m9 -52 c0
-9 -4 -10 -14 -2 -7 6 -13 12 -13 14 0 1 6 2 13 2 8 0 14 -6 14 -14z m-1930
-8 c0 -8 -4 -12 -9 -9 -5 3 -6 10 -3 15 9 13 12 11 12 -6z m-107 -31 c0 -8
-19 -13 -24 -6 -3 5 1 9 9 9 8 0 15 -2 15 -3z m1986 -20 c1 -9 0 -13 -4 -10
-3 4 -7 14 -8 22 -1 9 0 13 4 10 3 -4 7 -14 8 -22z m44 10 c0 -2 -7 -4 -15 -4
-8 0 -15 4 -15 10 0 5 7 7 15 4 8 -4 15 -8 15 -10z m-2045 -22 c-3 -3 -11 0
-18 7 -9 10 -8 11 6 5 10 -3 15 -9 12 -12z m1890 -1 c-3 -5 0 -13 6 -16 5 -4
8 -13 5 -21 -3 -7 3 -18 12 -23 13 -8 10 -9 -15 -6 -19 2 -33 -1 -33 -7 0 -5
7 -8 15 -5 8 4 17 1 21 -5 5 -7 2 -8 -6 -3 -10 6 -12 4 -7 -7 4 -12 -2 -18
-21 -23 l-27 -7 24 -12 c20 -11 21 -14 6 -19 -11 -5 -15 -13 -10 -29 4 -14 3
-18 -2 -11 -6 8 -14 9 -23 3 -8 -6 -10 -10 -4 -10 7 0 14 -7 18 -15 4 -13 2
-13 -14 -5 -30 16 -51 62 -27 57 7 -1 11 4 10 11 -2 6 1 12 5 12 5 0 8 12 7
28 -1 15 5 35 13 44 7 9 11 22 6 29 -4 7 -3 10 3 6 6 -4 17 1 24 10 10 12 10
14 2 9 -7 -4 -13 -3 -13 3 0 5 6 12 13 14 18 8 19 8 12 -2z m-1742 -54 c-3 -5
-11 -6 -19 -3 -22 9 -16 0 14 -20 23 -15 25 -15 13 -1 -9 11 -10 17 -2 17 10
0 13 -7 10 -26 0 -4 5 -11 13 -15 7 -5 8 -9 2 -9 -21 0 -80 55 -76 71 2 14 7
15 27 5 13 -6 21 -14 18 -19z m1780 20 c3 -8 -1 -14 -8 -14 -7 0 -11 6 -8 14
3 7 6 13 8 13 2 0 5 -6 8 -13z m87 -11 c0 -2 -9 -6 -20 -9 -11 -3 -18 -1 -14
4 5 9 34 13 34 5z m-1826 -78 c4 3 4 -2 0 -12 -6 -15 -4 -17 6 -11 8 5 11 4 6
-3 -3 -6 -2 -13 4 -17 6 -4 8 -11 5 -16 -4 -5 -1 -9 5 -9 6 0 9 -4 5 -9 -3 -6
3 -15 12 -21 17 -11 17 -11 0 -6 -12 4 -16 2 -12 -7 4 -6 0 -4 -9 6 -8 11 -13
27 -11 37 2 10 -3 24 -12 31 -13 11 -18 10 -30 -6 -14 -20 -15 -20 -13 0 1 11
2 27 1 35 -1 13 -2 13 -12 0 -8 -12 -9 -11 -7 5 2 11 -2 19 -8 18 -6 -1 -11 4
-11 12 0 9 11 6 38 -10 20 -13 40 -21 43 -17z m1776 22 c0 -5 -5 -10 -11 -10
-5 0 -7 5 -4 10 3 6 8 10 11 10 2 0 4 -4 4 -10z m-1923 -21 c1 -12 1 -20 0
-18 -2 2 -9 12 -16 22 -11 14 -11 17 1 17 7 0 14 -10 15 -21z m144 -54 c1 -8
2 -23 2 -32 2 -22 27 -42 44 -36 7 3 13 -2 13 -12 0 -9 4 -14 9 -10 6 3 15 -5
21 -17 9 -20 9 -21 -2 -7 -7 9 -21 15 -31 13 -14 -2 -17 2 -12 14 5 14 4 15
-6 5 -10 -10 -10 -16 -1 -25 7 -7 12 -9 12 -4 0 10 55 -33 56 -45 1 -5 2 -14
3 -20 0 -6 8 -8 17 -5 15 6 15 4 3 -11 -12 -15 -12 -16 3 -10 13 4 15 2 11
-10 -4 -9 -2 -14 3 -10 5 3 9 -7 8 -21 0 -18 -7 -28 -20 -30 -12 -2 -15 0 -7
5 18 12 9 45 -16 61 -19 13 -21 13 -15 -2 3 -9 1 -16 -6 -16 -6 0 -8 4 -5 10
3 5 -6 19 -20 32 -14 12 -24 27 -21 34 6 15 -28 66 -38 57 -4 -5 -7 -3 -6 2 5
23 -1 36 -12 29 -9 -5 -9 -2 1 9 7 9 9 17 4 17 -5 0 -10 11 -11 25 -1 14 3 25
8 25 6 0 11 -7 11 -15z m1760 -19 c-6 -7 -8 -16 -5 -19 3 -3 3 -11 -1 -17 -8
-13 -35 5 -35 24 0 6 5 4 10 -4 7 -10 10 -11 11 -2 1 6 3 17 4 22 1 6 3 13 4
16 0 3 6 2 11 -1 8 -5 8 -11 1 -19z m-1881 2 c0 -9 4 -8 11 2 9 13 10 13 6 -2
-3 -9 -1 -19 6 -22 8 -3 8 -5 1 -5 -6 -1 -19 8 -29 19 -10 11 -13 20 -7 20 7
0 12 -6 12 -12z m1757 -39 c3 -10 10 -16 17 -12 6 3 7 2 3 -3 -9 -9 -13 -10
-44 -13 -16 -1 -16 -3 -3 -11 13 -8 12 -10 -2 -10 -10 0 -18 -5 -18 -11 0 -6
-5 -5 -13 3 -21 20 -17 47 6 42 16 -3 18 1 15 26 -4 26 -2 28 15 18 11 -5 22
-18 24 -29z m-57 -80 c0 -5 -3 -8 -7 -8 -24 4 -34 -3 -29 -18 6 -20 -9 -51
-20 -40 -4 3 -3 12 2 20 5 7 1 4 -8 -6 -10 -11 -18 -16 -18 -12 0 9 41 68 54
77 12 8 26 1 26 -13z m20 -4 c-13 -14 -20 -25 -16 -25 4 0 -2 -12 -13 -26 -17
-22 -19 -30 -9 -43 11 -14 11 -14 -3 -4 -20 16 -33 5 -16 -15 8 -11 9 -14 0
-9 -7 4 -17 0 -23 -10 -11 -17 -11 -17 -6 0 3 9 2 17 -3 17 -14 0 -19 -48 -7
-62 9 -9 8 -10 -5 0 -9 6 -15 22 -14 34 1 13 -2 32 -8 43 -9 18 -9 19 6 6 10
-7 17 -10 17 -6 0 4 7 2 15 -5 13 -11 14 -10 9 4 -4 10 -13 15 -20 12 -8 -3
-14 -1 -14 3 0 15 27 20 39 8 8 -8 11 -8 11 1 0 7 9 21 20 32 16 16 17 20 4
20 -8 0 -12 5 -9 10 4 6 10 8 15 5 5 -3 14 4 20 15 6 11 16 20 22 20 6 0 1
-11 -12 -25z m11 -28 c-10 -9 -11 -8 -5 6 3 10 9 15 12 12 3 -3 0 -11 -7 -18z
m-1485 -72 c1 -8 -4 -11 -11 -8 -8 2 -11 11 -8 19 6 16 16 11 19 -11z m1350
-37 c-1 -13 1 -30 5 -38 11 -24 -29 -23 -41 1 -10 18 -6 23 13 20 11 -2 8 14
-5 28 -11 10 -9 11 6 5 15 -6 17 -4 11 6 -5 8 -4 11 2 7 6 -4 9 -17 9 -29z
m-1296 1 c0 -5 -4 -8 -9 -4 -5 3 -12 1 -16 -4 -3 -6 6 -8 22 -5 21 3 24 2 13
-6 -13 -8 -12 -10 4 -10 20 0 20 0 0 -15 -18 -14 -18 -14 4 -8 12 3 22 9 22
14 0 5 5 9 11 9 8 0 8 -4 0 -14 -10 -11 -7 -17 11 -30 21 -15 14 -22 -15 -17
-5 1 -6 -2 -3 -7 2 -4 0 -14 -6 -22 -8 -12 -9 -11 -4 4 5 13 2 17 -9 12 -8 -3
-14 0 -12 7 1 7 -7 11 -18 9 -16 -2 -17 -1 -5 7 13 9 12 12 -5 26 -16 12 -17
14 -2 9 9 -3 17 -1 17 5 0 6 -9 11 -20 11 -23 0 -26 10 -8 28 15 15 28 15 28
1z m1404 -51 c-16 -18 -30 -35 -31 -37 -2 -2 -6 -1 -10 3 -4 4 0 12 10 17 9 6
14 15 11 21 -4 7 -2 8 5 4 6 -4 14 0 17 8 3 9 11 16 17 16 6 0 -2 -15 -19 -32z
m-118 -20 c4 4 4 1 0 -5 -4 -7 -17 -13 -29 -13 -18 0 -20 2 -7 11 13 9 12 10
-2 5 -10 -3 -20 -1 -23 4 -4 6 1 10 11 10 14 0 14 3 4 18 -7 9 -1 5 13 -10 14
-15 28 -24 33 -20z m-1369 -17 c-1 -15 -4 -17 -14 -9 -17 14 -16 28 1 28 8 0
14 -9 13 -19z m1336 -27 c-3 -8 -9 -14 -15 -14 -5 0 -6 5 -3 10 3 6 1 10 -4
10 -14 0 -14 -23 0 -37 8 -8 7 -13 -2 -18 -8 -6 -10 -4 -4 5 5 8 3 11 -6 8 -8
-3 -13 -14 -11 -24 2 -16 1 -17 -7 -4 -10 14 -15 7 -12 -13 1 -5 -3 -5 -9 -2
-6 4 -9 14 -6 22 3 8 2 12 -2 9 -4 -2 -14 0 -22 5 -11 7 -6 9 19 7 18 -2 33 0
32 5 -1 4 -1 13 -1 20 0 8 -4 7 -10 -3 -7 -11 -10 -11 -10 -2 0 7 -5 10 -12 6
-7 -5 -8 -3 -4 5 5 7 10 10 13 7 9 -9 44 14 38 25 -4 5 5 4 19 -2 14 -7 22
-17 19 -25z m-1157 17 c-6 -9 35 -65 64 -87 8 -7 15 -25 15 -40 1 -35 21 -74
38 -73 9 0 9 2 -1 6 -6 2 -10 9 -6 14 3 5 0 9 -6 9 -6 0 -8 5 -4 12 4 7 3 8
-4 4 -11 -7 -8 31 4 43 3 3 4 -3 2 -13 -1 -10 3 -21 11 -24 9 -3 11 0 6 8 -5
9 -4 11 4 6 6 -4 9 -11 6 -16 -3 -4 2 -11 11 -14 10 -4 14 -13 10 -22 -5 -12
-1 -14 17 -9 19 5 20 5 4 -5 -9 -6 -15 -15 -12 -19 6 -11 -23 -36 -32 -27 -3
3 -1 6 5 6 15 0 15 27 0 36 -6 4 -8 3 -4 -4 3 -6 1 -14 -5 -18 -7 -4 -9 -3 -5
4 3 6 -3 13 -14 17 -11 3 -20 13 -20 21 0 8 -4 14 -10 14 -5 0 -10 7 -10 16 0
10 -6 14 -15 10 -8 -3 -14 0 -12 6 1 7 -4 12 -12 13 -8 0 -16 11 -18 25 -2 13
-8 27 -15 31 -6 4 -8 12 -4 18 4 6 1 9 -7 5 -8 -3 -17 2 -21 11 -7 19 1 38 14
30 5 -3 11 -1 15 5 3 5 8 10 11 10 3 0 3 -4 0 -9z m1249 -52 c-10 -15 -25 -10
-19 6 4 8 10 12 15 9 5 -3 7 -10 4 -15z m-1355 -14 c7 -9 8 -15 2 -15 -5 0
-12 7 -16 15 -3 8 -4 15 -2 15 2 0 9 -7 16 -15z m1166 -21 c-3 -8 -2 -12 4 -9
6 3 10 1 10 -6 0 -6 -8 -9 -18 -7 -11 3 -19 0 -19 -8 0 -7 3 -13 6 -12 3 0 13
0 21 -1 13 -1 13 -3 1 -10 -9 -6 -22 -6 -33 0 -18 10 -18 11 -1 39 18 31 40
42 29 14z m-1083 -9 c-3 -9 -8 -14 -10 -11 -3 3 -2 9 2 15 9 16 15 13 8 -4z
m-59 -4 c3 -5 -1 -11 -9 -14 -9 -4 -12 -1 -8 9 6 16 10 17 17 5z m1091 -12
c-4 -5 1 -19 11 -30 16 -18 16 -19 -4 -19 -16 0 -20 5 -16 18 5 13 4 14 -4 3
-12 -17 -5 -41 11 -37 7 1 9 1 4 -1 -4 -3 -5 -8 -2 -13 3 -4 -4 -6 -15 -3 -11
3 -18 9 -15 13 3 5 1 11 -5 15 -5 3 -10 11 -10 16 0 6 5 7 10 4 9 -5 12 1 9
21 0 4 5 11 13 15 17 12 20 11 13 -2z m136 -43 c-6 -7 -9 -16 -6 -20 3 -3 -1
-1 -8 5 -9 9 -9 12 1 16 6 3 9 10 6 15 -4 7 -2 8 5 4 8 -6 9 -12 2 -20z m-182
-16 c4 0 7 -13 6 -29 0 -16 -3 -27 -6 -25 -11 6 -49 -27 -43 -38 4 -6 -2 -6
-15 1 -24 13 -29 26 -5 17 8 -3 12 -2 9 4 -3 6 -1 10 5 10 6 0 9 4 5 10 -3 5
-13 3 -24 -6 -13 -11 -17 -28 -16 -59 1 -24 -2 -42 -7 -39 -5 3 -5 10 -2 16 4
6 -1 8 -14 4 -11 -4 -23 -2 -27 4 -4 7 -13 7 -28 -1 -20 -9 -20 -9 -5 4 10 8
14 18 10 22 -4 5 -2 5 5 1 6 -3 14 -2 18 4 4 6 10 8 15 5 12 -7 32 30 22 40
-4 5 -2 5 5 1 6 -3 18 2 25 12 7 10 21 19 30 19 14 0 15 -3 7 -14 -7 -8 -8
-13 -1 -13 19 0 21 29 4 47 -16 16 -16 16 1 10 10 -4 22 -7 26 -7z m146 -30
c4 -6 2 -9 -4 -8 -5 2 -16 -6 -24 -16 -11 -15 -16 -16 -22 -6 -5 8 -4 11 3 6
6 -3 13 3 17 14 7 22 20 26 30 10z m-1121 -26 c5 -14 4 -15 -9 -4 -17 14 -19
20 -6 20 5 0 12 -7 15 -16z m219 3 c-2 -4 -3 -12 -3 -18 0 -6 -7 -8 -16 -5 -8
3 -13 2 -10 -3 3 -5 22 -8 41 -6 19 2 33 0 30 -4 -5 -9 44 -36 59 -32 4 1 -2
-11 -15 -27 -21 -25 -26 -26 -40 -13 -10 7 -15 20 -12 27 6 16 23 19 23 4 0
-5 -5 -10 -12 -10 -6 0 -8 -3 -5 -6 4 -4 14 -1 22 6 15 12 15 14 0 23 -11 6
-22 4 -33 -7 -10 -8 -23 -12 -29 -8 -9 5 -6 12 8 21 16 9 19 9 14 0 -5 -8 -4
-10 4 -5 20 13 2 26 -23 17 -17 -7 -25 -5 -34 10 -16 26 -15 32 6 25 14 -5 13
-3 -3 9 -19 15 -19 15 5 12 14 -2 24 -7 23 -10z m697 -58 c0 -5 -4 -9 -8 -9
-5 0 -9 7 -9 15 0 8 4 12 9 9 4 -3 8 -9 8 -15z m121 4 c13 -16 12 -17 -3 -4
-17 13 -22 21 -14 21 2 0 10 -8 17 -17z m-199 -56 c-7 -8 -9 -16 -6 -20 3 -3
-5 -3 -18 0 -16 3 -19 2 -10 -5 11 -7 10 -11 -4 -16 -9 -4 -22 -2 -27 3 -12
12 0 64 13 56 6 -3 18 -2 27 4 23 13 40 -3 25 -22z m-515 -4 c-9 -9 -20 -13
-24 -9 -4 4 -1 11 7 16 25 16 35 11 17 -7z m28 -3 c-3 -5 1 -10 10 -10 9 0 13
-5 10 -10 -5 -8 -11 -8 -19 -1 -9 8 -13 7 -13 -4 0 -7 4 -13 8 -12 4 1 9 -2
11 -7 1 -5 -7 -10 -19 -11 -19 -1 -20 1 -12 18 10 17 8 18 -13 12 -19 -5 -18
-3 7 14 34 24 39 25 30 11z m625 0 c0 -5 -2 -10 -4 -10 -3 0 -8 5 -11 10 -3 6
-1 10 4 10 6 0 11 -4 11 -10z m-216 -55 c-6 -14 -41 -31 -56 -27 -8 2 -12 -15
-8 -33 1 -5 -2 -6 -6 -2 -17 17 -11 60 8 65 11 3 17 10 14 19 -3 8 -2 12 3 9
5 -3 15 1 22 10 12 14 14 14 21 -5 4 -12 5 -28 2 -36z m-303 -9 c5 3 12 -2 15
-10 3 -9 11 -13 18 -9 6 4 5 -1 -3 -10 -7 -9 -18 -14 -24 -10 -6 3 -7 1 -3 -5
5 -9 13 -9 27 -2 13 7 25 7 38 0 24 -12 34 -13 26 -1 -3 5 0 13 6 17 7 4 9 3
5 -4 -3 -6 -2 -13 4 -17 5 -3 10 -2 10 2 0 5 9 14 21 21 17 11 20 11 14 0 -17
-29 -38 -47 -48 -41 -6 3 -7 1 -3 -5 4 -7 2 -12 -4 -12 -6 0 -9 -4 -6 -9 8
-12 -14 -8 -39 7 -14 9 -16 15 -7 18 6 3 12 10 12 16 0 7 -4 7 -13 0 -16 -13
-58 -12 -50 2 4 5 -1 7 -10 3 -9 -3 -16 -3 -16 1 3 20 -3 23 -18 11 -14 -12
-16 -12 -8 0 6 11 4 13 -8 8 -11 -4 -14 -2 -10 9 4 12 8 12 22 2 14 -12 15
-11 2 5 -8 10 -20 16 -28 13 -19 -8 -12 27 7 35 9 4 25 -4 39 -17 13 -13 27
-21 32 -18z m214 -7 c-1 -23 -7 -34 -23 -40 -29 -11 -28 -18 3 -15 13 2 22 -1
19 -5 -3 -5 -18 -7 -34 -4 -24 4 -28 2 -25 -13 2 -11 -3 -19 -10 -19 -8 0 -12
4 -9 9 3 4 1 8 -5 8 -5 0 -12 -6 -14 -12 -4 -9 -6 -9 -6 -2 -1 7 15 26 35 43
19 17 32 36 29 41 -3 5 0 7 8 4 9 -3 16 3 20 15 8 30 13 26 12 -10z m199 -20
c-3 -5 -10 -7 -15 -3 -5 3 -7 10 -3 15 3 5 10 7 15 3 5 -3 7 -10 3 -15z m-613
-12 c-10 -9 -11 -8 -5 6 3 10 9 15 12 12 3 -3 0 -11 -7 -18z m579 1 c0 -10
-27 -10 -34 0 -2 4 4 8 15 8 10 0 19 -4 19 -8z m-495 -38 c3 -6 -1 -7 -9 -4
-18 7 -21 14 -7 14 6 0 13 -4 16 -10z m335 -70 c0 -5 -5 -10 -11 -10 -5 0 -7
5 -4 10 3 6 8 10 11 10 2 0 4 -4 4 -10z m-38 -32 c-2 -10 -8 -18 -13 -18 -4 0
-7 8 -6 18 0 10 6 19 13 19 6 0 9 -9 6 -19z"/>
<path d="M1616 2734 c-11 -8 -15 -14 -9 -14 7 0 15 5 19 12 5 8 11 5 20 -7 8
-10 16 -16 19 -13 3 2 -3 12 -12 21 -16 13 -20 14 -37 1z"/>
<path d="M1430 2704 c0 -8 5 -12 10 -9 6 3 10 10 10 16 0 5 -4 9 -10 9 -5 0
-10 -7 -10 -16z"/>
<path d="M2032 2570 c0 -14 2 -19 5 -12 2 6 2 18 0 25 -3 6 -5 1 -5 -13z"/>
<path d="M1985 2570 c-3 -5 -1 -10 4 -10 6 0 11 5 11 10 0 6 -2 10 -4 10 -3 0
-8 -4 -11 -10z"/>
<path d="M2076 2551 c-4 -5 -2 -12 3 -15 5 -4 12 -2 15 3 4 5 2 12 -3 15 -5 4
-12 2 -15 -3z"/>
<path d="M2040 2532 c0 -5 7 -9 15 -9 8 0 12 4 9 9 -3 4 -9 8 -15 8 -5 0 -9
-4 -9 -8z"/>
<path d="M2360 2481 c0 -7 -4 -10 -9 -6 -5 3 -12 1 -15 -4 -4 -5 -2 -12 3 -15
11 -7 36 22 27 31 -3 3 -6 1 -6 -6z"/>
<path d="M1157 2593 c-4 -3 -7 -11 -7 -17 0 -6 5 -5 12 2 6 6 9 14 7 17 -3 3
-9 2 -12 -2z"/>
<path d="M1054 2578 c-4 -7 -3 -8 4 -4 7 4 12 1 12 -8 0 -9 5 -16 10 -16 7 0
7 6 0 20 -12 23 -16 24 -26 8z"/>
<path d="M913 2533 c4 -3 1 -13 -6 -22 -11 -14 -10 -14 5 -2 16 12 16 31 1 31
-4 0 -3 -3 0 -7z"/>
<path d="M691 2483 c7 -12 15 -20 18 -17 3 2 -3 12 -13 22 -17 16 -18 16 -5
-5z"/>
<path d="M590 2450 c0 -5 7 -7 15 -4 8 4 15 8 15 10 0 2 -7 4 -15 4 -8 0 -15
-4 -15 -10z"/>
<path d="M2575 2410 c-3 -6 1 -7 9 -4 18 7 21 14 7 14 -6 0 -13 -4 -16 -10z"/>
<path d="M2555 2379 c-4 -6 -5 -12 -2 -15 2 -3 7 2 10 11 7 17 1 20 -8 4z"/>
<path d="M2556 1843 c-6 -14 -5 -15 5 -6 7 7 10 15 7 18 -3 3 -9 -2 -12 -12z"/>
<path d="M2503 1695 c0 -8 4 -12 9 -9 5 3 6 10 3 15 -9 13 -12 11 -12 -6z"/>
<path d="M2520 1590 c-9 -6 -10 -10 -3 -10 6 0 15 5 18 10 8 12 4 12 -15 0z"/>
<path d="M2475 1551 c-3 -7 0 -8 10 -5 11 5 14 2 9 -10 -3 -9 -2 -16 4 -16 13
0 8 33 -5 37 -6 2 -14 -1 -18 -6z"/>
<path d="M2450 1396 c0 -2 7 -9 15 -16 13 -11 14 -10 9 4 -5 14 -24 23 -24 12z"/>
<path d="M2435 1370 c3 -5 8 -10 11 -10 2 0 4 5 4 10 0 6 -5 10 -11 10 -5 0
-7 -4 -4 -10z"/>
<path d="M499 1888 c-6 -20 -5 -38 1 -48 5 -7 7 0 6 19 -1 26 -4 39 -7 29z"/>
<path d="M525 1801 c3 -11 2 -21 -3 -21 -15 0 -24 -32 -12 -44 8 -8 9 -6 5 7
-4 9 -3 17 2 17 4 0 13 8 19 18 9 13 8 21 -4 31 -12 12 -13 11 -7 -8z"/>
<path d="M530 1721 c0 -5 5 -13 10 -16 6 -3 10 -2 10 4 0 5 -4 13 -10 16 -5 3
-10 2 -10 -4z"/>
<path d="M570 1464 c6 -6 7 -14 3 -17 -3 -4 -3 -7 0 -7 3 0 11 8 16 18 7 14 6
18 -9 18 -13 0 -16 -4 -10 -12z"/>
<path d="M595 1380 c3 -5 8 -10 11 -10 2 0 4 5 4 10 0 6 -5 10 -11 10 -5 0 -7
-4 -4 -10z"/>
<path d="M630 1321 c0 -6 4 -12 8 -15 5 -3 9 1 9 9 0 8 -4 15 -9 15 -4 0 -8
-4 -8 -9z"/>
<path d="M605 1310 c3 -5 8 -10 11 -10 2 0 4 5 4 10 0 6 -5 10 -11 10 -5 0 -7
-4 -4 -10z"/>
<path d="M2369 1228 c-7 -25 -5 -36 6 -31 8 2 11 11 8 19 -5 12 -12 18 -14 12z"/>
<path d="M2365 1150 c3 -5 8 -10 11 -10 2 0 4 5 4 10 0 6 -5 10 -11 10 -5 0
-7 -4 -4 -10z"/>
<path d="M2340 1125 c-11 -13 -10 -14 4 -9 9 3 16 10 16 15 0 13 -6 11 -20 -6z"/>
<path d="M764 976 c1 -12 7 -20 14 -18 7 1 12 -2 12 -7 0 -5 8 -12 17 -15 15
-6 15 -5 -1 13 -10 10 -13 20 -7 22 6 2 0 9 -13 15 -20 9 -23 8 -22 -10z"/>
<path d="M2326 1067 c3 -10 9 -15 12 -12 3 3 0 11 -7 18 -10 9 -11 8 -5 -6z"/>
<path d="M2285 1040 c-3 -5 -1 -10 4 -10 6 0 11 5 11 10 0 6 -2 10 -4 10 -3 0
-8 -4 -11 -10z"/>
<path d="M2150 826 c0 -2 8 -10 18 -17 15 -13 16 -12 3 4 -13 16 -21 21 -21
13z"/>
<path d="M905 780 c-7 -12 -7 -12 23 -15 18 -2 20 0 11 11 -14 17 -25 18 -34
4z"/>
<path d="M961 731 c-8 -5 -9 -11 -3 -15 5 -3 12 1 16 9 6 17 6 18 -13 6z"/>
<path d="M984 707 c1 -8 7 -21 13 -28 6 -8 9 -22 8 -31 -2 -10 0 -17 3 -16 4
1 15 -2 25 -7 24 -10 31 -1 17 22 -11 17 -11 17 -6 0 4 -12 2 -17 -6 -14 -7 2
-12 11 -10 21 2 9 -2 16 -8 16 -6 0 -9 4 -6 9 3 4 -3 16 -13 26 -16 13 -19 14
-17 2z"/>
<path d="M1107 574 c6 -15 23 -19 23 -5 0 5 -7 11 -14 14 -10 4 -13 1 -9 -9z"/>
<path d="M1820 468 c0 -4 7 -8 15 -8 8 0 15 4 15 8 0 5 -7 9 -15 9 -8 0 -15
-4 -15 -9z"/>
<path d="M1259 433 c-13 -16 -12 -17 4 -4 9 7 17 15 17 17 0 8 -8 3 -21 -13z"/>
<path d="M1790 420 c-9 -6 -10 -10 -3 -10 6 0 15 5 18 10 8 12 4 12 -15 0z"/>
<path d="M1753 400 c-1 -11 2 -20 5 -20 4 0 8 9 9 20 1 11 -2 20 -5 20 -4 0
-8 -9 -9 -20z"/>
<path d="M1709 385 c-1 -3 -2 -8 -3 -12 -3 -19 -18 -33 -28 -27 -7 4 -8 2 -4
-4 9 -15 9 -15 36 8 13 11 18 20 11 20 -7 0 -9 5 -6 10 3 6 4 10 1 10 -3 0 -7
-2 -7 -5z"/>
<path d="M1366 372 c-4 -3 5 -13 20 -22 14 -10 24 -21 22 -25 -2 -5 7 -9 19
-10 14 -1 19 3 16 12 -3 7 -9 11 -13 8 -4 -2 -19 6 -33 19 -14 13 -28 21 -31
18z"/>
<path d="M1495 271 c-3 -5 -1 -12 5 -16 5 -3 10 1 10 9 0 18 -6 21 -15 7z"/>
<path d="M1250 2802 c0 -5 -13 -8 -30 -7 -19 2 -27 -1 -23 -8 4 -6 0 -8 -10
-4 -11 4 -14 2 -10 -9 3 -9 9 -11 17 -5 6 5 14 10 19 10 4 1 8 1 10 2 1 0 10
2 20 4 25 5 31 11 18 20 -6 3 -11 2 -11 -3z"/>
<path d="M1867 2789 c7 -7 15 -10 18 -7 3 3 -2 9 -12 12 -14 6 -15 5 -6 -5z"/>
<path d="M2340 2646 c0 -8 4 -17 9 -20 5 -4 7 3 4 14 -6 23 -13 26 -13 6z"/>
<path d="M2305 2630 c-3 -6 1 -7 9 -4 18 7 21 14 7 14 -6 0 -13 -4 -16 -10z"/>
<path d="M2473 2615 c0 -8 4 -15 9 -15 4 0 8 4 8 9 0 6 -4 12 -8 15 -5 3 -9
-1 -9 -9z"/>
<path d="M2661 2574 c0 -11 3 -14 6 -6 3 7 2 16 -1 19 -3 4 -6 -2 -5 -13z"/>
<path d="M376 2558 c5 -8 0 -9 -15 -5 -18 4 -20 3 -10 -9 9 -11 15 -11 25 -3
12 10 11 29 -2 29 -3 0 -2 -5 2 -12z"/>
<path d="M2715 2450 c-16 -7 -17 -9 -3 -9 9 -1 20 4 23 9 7 11 7 11 -20 0z"/>
<path d="M2694 2269 c-8 -14 14 -19 25 -6 8 10 7 14 -5 14 -8 0 -17 -4 -20 -8z"/>
<path d="M346 2243 c-6 -14 -5 -15 5 -6 7 7 10 15 7 18 -3 3 -9 -2 -12 -12z"/>
<path d="M2693 2220 c-1 -11 2 -20 5 -20 4 0 8 9 9 20 1 11 -2 20 -5 20 -4 0
-8 -9 -9 -20z"/>
<path d="M335 2210 c-3 -6 1 -7 9 -4 18 7 21 14 7 14 -6 0 -13 -4 -16 -10z"/>
<path d="M350 2189 c0 -5 5 -7 10 -4 6 3 10 8 10 11 0 2 -4 4 -10 4 -5 0 -10
-5 -10 -11z"/>
<path d="M343 2133 c4 -3 1 -13 -6 -22 -11 -14 -10 -14 5 -2 16 12 16 31 1 31
-4 0 -3 -3 0 -7z"/>
<path d="M2615 1530 c3 -5 8 -10 11 -10 2 0 4 5 4 10 0 6 -5 10 -11 10 -5 0
-7 -4 -4 -10z"/>
<path d="M436 1423 c-6 -14 -5 -15 5 -6 7 7 10 15 7 18 -3 3 -9 -2 -12 -12z"/>
<path d="M2240 736 c0 -2 8 -10 18 -17 15 -13 16 -12 3 4 -13 16 -21 21 -21
13z"/>
<path d="M829 708 c-7 -23 -3 -45 8 -41 9 4 10 9 3 18 -5 6 -7 15 -3 18 3 4 3
7 0 7 -4 0 -7 -1 -8 -2z"/>
<path d="M1905 379 c4 -6 9 -8 13 -5 3 3 11 -2 19 -12 13 -15 13 -15 3 6 -6
12 -18 22 -26 22 -8 0 -12 -5 -9 -11z"/>
<path d="M1473 137 c-3 -6 -1 -7 5 -3 5 3 12 1 14 -6 3 -8 6 -7 10 3 7 17 -19
22 -29 6z"/>
</g>
</svg>
